<?xml version="1.0" standalone="no"?>
<!DOCTYPE svg PUBLIC "-//W3C//DTD SVG 20010904//EN"
 "http://www.w3.org/TR/2001/REC-SVG-20010904/DTD/svg10.dtd">
<svg version="1.0" xmlns="http://www.w3.org/2000/svg"
 width="900.000000pt" height="900.000000pt" viewBox="0 0 900.000000 900.000000"
 preserveAspectRatio="xMidYMid meet">

<g transform="translate(0.000000,900.000000) scale(0.100000,-0.100000)"
fill="#000000" stroke="none">
<path d="M4990 6659 c0 -5 4 -8 8 -5 5 3 22 1 38 -4 19 -5 -45 -9 -186 -10
-118 -1 -219 -2 -223 -1 -5 1 -11 -8 -14 -19 -5 -19 -13 -20 -192 -21 -163 0
-181 -2 -146 -13 l40 -12 -34 -7 c-18 -4 -87 -7 -153 -7 -103 0 -119 -2 -114
-15 4 -12 -4 -15 -37 -16 -23 -1 -58 -3 -77 -4 -19 -2 -45 -4 -57 -4 -13 -1
-23 -7 -23 -16 0 -12 -17 -15 -96 -15 -91 0 -96 -1 -91 -20 5 -19 0 -20 -89
-20 -87 0 -94 -1 -94 -20 0 -18 -7 -20 -75 -20 -60 0 -75 -3 -75 -15 0 -11
-13 -15 -52 -15 -67 0 -98 -9 -98 -26 0 -10 -15 -14 -52 -15 -46 0 -115 -16
-80 -18 6 -1 12 -5 12 -11 0 -5 -25 -10 -55 -10 -42 0 -55 -3 -55 -15 0 -8 -9
-16 -20 -16 -11 -1 -24 -3 -30 -4 -5 -1 -27 -3 -49 -4 -30 -1 -40 -6 -44 -22
-3 -11 -11 -19 -19 -18 -7 1 -32 1 -55 0 -33 -1 -41 -4 -37 -16 5 -12 -2 -15
-32 -16 -47 -1 -101 -16 -69 -19 l20 -1 -20 -9 c-11 -5 -37 -9 -57 -9 -31 -1
-38 -5 -38 -21 0 -18 -7 -20 -55 -20 -43 0 -53 -3 -49 -14 4 -11 -6 -16 -40
-21 -32 -5 -43 -11 -39 -21 4 -11 -7 -14 -51 -14 -49 0 -56 -2 -56 -20 0 -17
-7 -20 -40 -20 -33 0 -40 -3 -40 -20 0 -17 -7 -20 -41 -20 -32 0 -40 -3 -35
-15 4 -12 -3 -15 -34 -15 -33 0 -40 -3 -40 -20 0 -19 -19 -26 -57 -21 -7 1
-13 -7 -13 -19 0 -17 -6 -20 -39 -20 -30 0 -40 -4 -44 -20 -3 -11 -9 -20 -14
-19 -4 1 -21 1 -36 0 -21 -1 -27 -6 -25 -18 2 -14 -5 -19 -35 -21 -29 -2 -37
-7 -33 -18 4 -10 -2 -14 -19 -14 -16 0 -25 -6 -25 -15 0 -8 -5 -15 -11 -15 -5
0 -7 5 -4 10 3 6 1 10 -4 10 -6 0 -11 -7 -11 -15 0 -8 -9 -15 -20 -15 -13 0
-20 -7 -20 -20 0 -17 -7 -20 -40 -20 -28 0 -40 -4 -40 -15 0 -8 -14 -17 -35
-21 -20 -3 -35 -12 -35 -20 0 -8 -9 -14 -20 -14 -13 0 -20 -7 -20 -20 0 -19
-18 -26 -56 -21 -7 1 -14 -8 -17 -19 -3 -11 -12 -20 -21 -20 -9 0 -16 -7 -16
-15 0 -8 -9 -15 -20 -15 -13 0 -20 -7 -20 -20 0 -14 -7 -20 -22 -21 -48 -3
-53 -5 -52 -21 1 -11 -5 -18 -17 -18 -10 0 -19 -6 -19 -14 0 -9 -15 -17 -40
-21 -30 -5 -40 -11 -40 -26 0 -12 -7 -19 -20 -19 -13 0 -18 -5 -14 -15 5 -11
-1 -15 -20 -15 -19 0 -26 -5 -26 -20 0 -16 -7 -20 -34 -20 -29 0 -33 -3 -29
-20 4 -16 0 -20 -21 -20 -20 0 -26 -4 -24 -17 2 -12 -3 -18 -14 -17 -11 1 -18
-5 -18 -17 0 -12 -7 -19 -20 -19 -13 0 -20 -7 -20 -20 0 -13 -7 -20 -20 -20
-13 0 -20 -7 -20 -20 0 -13 -7 -20 -20 -20 -11 0 -20 -7 -20 -15 0 -8 -7 -15
-15 -15 -8 0 -15 -9 -15 -20 0 -13 -7 -20 -20 -20 -13 0 -20 -7 -20 -20 0 -13
-7 -20 -20 -20 -14 0 -20 -7 -20 -21 0 -15 -5 -19 -15 -15 -10 4 -15 -1 -15
-15 0 -12 -8 -23 -19 -26 -11 -3 -21 -13 -24 -24 -3 -13 -11 -17 -21 -13 -13
5 -16 -1 -16 -35 0 -34 -3 -41 -20 -41 -13 0 -20 -7 -20 -20 0 -11 -7 -20 -15
-20 -8 0 -17 -14 -21 -35 -3 -20 -12 -35 -20 -35 -9 0 -14 -12 -14 -35 0 -28
-4 -35 -20 -35 -17 0 -20 -7 -20 -40 0 -33 -3 -40 -20 -40 -19 0 -20 -7 -20
-191 0 -186 1 -191 20 -186 17 4 20 0 20 -34 0 -28 4 -39 15 -39 10 0 17 -14
21 -40 5 -30 11 -40 25 -40 12 0 16 -5 13 -15 -4 -10 0 -15 15 -15 14 0 21 -6
21 -20 0 -13 7 -20 20 -20 13 0 20 -7 20 -20 0 -13 7 -20 20 -20 13 0 20 -7
20 -20 0 -13 7 -20 20 -20 11 0 20 -7 20 -15 0 -8 9 -15 20 -15 13 0 20 -7 20
-20 0 -16 7 -20 35 -20 28 0 35 -4 35 -20 0 -11 7 -20 15 -20 8 0 15 -7 15
-15 0 -11 11 -15 40 -15 33 0 40 -3 40 -20 0 -16 7 -20 36 -20 27 0 37 -5 41
-20 5 -17 14 -20 59 -20 41 0 54 -4 54 -15 0 -9 10 -15 23 -16 12 -1 27 -2 32
-4 6 -1 20 -3 33 -3 12 -1 22 -8 22 -16 0 -14 42 -26 91 -26 21 0 27 -4 23
-15 -5 -13 7 -15 72 -16 44 0 88 -4 99 -9 l20 -9 -20 -1 -20 -1 20 -9 c11 -5
53 -9 93 -9 63 -1 72 -3 72 -20 0 -11 7 -18 18 -18 166 0 214 -4 208 -18 -4
-13 9 -15 89 -15 88 0 95 1 96 20 2 33 4 38 12 46 4 4 7 -4 8 -17 l1 -24 8 25
c4 14 8 40 9 58 1 25 5 32 21 32 17 0 20 7 20 41 0 32 3 40 15 35 11 -4 15 1
15 19 0 18 5 25 20 25 16 0 20 7 20 35 0 28 4 35 20 35 17 0 20 7 20 40 0 29
4 40 15 40 13 0 19 19 18 58 -1 6 8 12 18 12 15 0 19 7 19 40 0 33 3 40 20 40
17 0 20 7 20 40 0 33 3 40 20 40 16 0 20 7 20 35 0 24 5 35 15 35 8 0 16 10
17 23 0 12 2 29 2 37 1 8 9 14 18 12 12 -2 18 8 23 38 4 25 12 40 21 40 9 0
14 12 14 35 0 28 4 35 20 35 17 0 20 7 20 40 0 33 3 40 20 40 18 0 20 7 21 58
1 31 3 49 6 40 12 -48 32 10 24 70 -1 8 7 16 18 19 16 4 21 13 21 39 0 27 4
34 20 34 17 0 20 7 20 40 0 32 3 38 16 33 10 -4 17 1 21 16 3 11 12 21 19 21
12 0 19 38 17 98 -1 6 8 12 18 12 15 0 19 8 20 38 0 40 17 93 18 60 2 -37 21
-16 21 22 0 27 4 40 14 40 8 0 17 15 20 35 5 26 12 35 27 35 11 0 18 4 14 10
-9 15 6 60 21 60 13 0 17 15 17 63 0 10 7 17 18 17 15 0 19 7 19 35 0 28 4 35
20 35 17 0 20 7 20 40 0 29 4 40 15 40 14 0 20 24 16 58 -1 8 7 16 18 19 16 4
21 13 21 39 0 27 4 34 20 34 16 0 20 7 20 35 0 28 4 35 20 35 17 0 20 7 20 40
0 29 4 40 15 40 13 0 19 19 18 58 -1 6 7 12 17 12 13 0 19 11 24 40 4 26 11
40 21 40 8 0 15 9 15 20 0 11 7 20 15 20 8 0 15 4 15 10 0 5 -7 7 -15 4 -8 -4
-15 -2 -15 4 0 16 54 22 204 23 77 1 131 4 119 6 -13 2 -23 9 -23 14 0 5 89 9
214 9 228 0 276 5 276 26 0 8 7 14 15 14 8 0 15 -9 15 -20 0 -13 7 -20 20 -20
11 0 20 -7 20 -15 0 -8 -9 -15 -20 -15 -17 0 -20 -7 -20 -41 0 -32 -3 -40 -15
-35 -11 4 -15 -1 -15 -19 0 -19 -5 -25 -20 -25 -12 0 -20 -6 -19 -12 4 -36 -2
-88 -12 -88 -5 0 -7 5 -4 10 3 6 2 10 -3 10 -12 0 -22 -24 -22 -51 0 -10 -7
-19 -15 -19 -9 0 -15 -9 -15 -24 0 -45 -13 -86 -26 -86 -9 0 -14 -12 -14 -35
0 -28 -4 -35 -20 -35 -17 0 -20 -7 -20 -40 0 -32 -4 -40 -18 -40 -15 0 -19 -8
-20 -40 -2 -34 1 -40 18 -40 14 0 20 7 20 24 0 17 5 23 18 22 13 -1 18 8 20
37 2 28 7 37 17 33 9 -3 15 7 20 35 4 24 12 39 21 39 10 0 14 12 14 40 0 33 4
40 19 40 14 0 21 10 25 35 4 21 13 35 21 35 11 0 15 12 15 39 0 31 4 38 18 37
16 -1 18 4 21 52 1 12 7 22 16 22 8 0 15 9 15 20 0 18 7 20 75 20 80 0 80 0
78 58 -1 6 8 12 18 12 14 0 19 7 19 25 0 18 5 25 20 25 11 0 20 7 20 15 0 13
45 15 338 16 208 0 326 4 308 9 -16 5 -33 7 -38 4 -4 -3 -8 0 -8 5 0 6 3 12 8
12 29 5 101 7 346 8 154 1 277 3 275 5 -2 2 -19 6 -37 9 -71 11 -40 17 96 18
78 1 147 3 152 4 6 1 65 3 132 4 111 1 142 10 83 24 -11 3 76 5 193 6 176 1
212 3 212 15 0 8 -8 17 -17 19 -10 3 60 6 155 7 201 3 193 2 190 15 -3 17 50
23 222 24 133 2 160 4 140 14 -21 9 -3 12 110 18 74 4 136 7 138 8 1 0 2 8 2
16 0 10 11 15 35 15 34 0 35 -1 35 -41 0 -32 -3 -40 -15 -35 -12 4 -15 -3 -15
-34 0 -33 -3 -40 -19 -40 -16 0 -20 -8 -23 -37 -2 -30 -7 -37 -20 -35 -15 2
-18 -5 -18 -38 0 -27 -4 -40 -14 -40 -16 0 -26 -30 -26 -77 0 -18 -5 -33 -11
-33 -6 0 -9 7 -5 15 3 8 2 15 -3 15 -11 0 -21 -35 -21 -72 0 -16 -4 -28 -10
-28 -5 0 -7 7 -4 15 4 8 1 15 -5 15 -6 0 -11 -15 -12 -32 0 -35 -17 -85 -18
-58 -2 25 -21 -10 -21 -37 0 -16 -6 -23 -20 -23 -11 0 -20 -5 -20 -11 0 -6 9
-9 20 -6 11 3 20 1 20 -4 0 -5 -8 -9 -17 -10 -10 0 -45 -2 -78 -3 -33 -2 -157
-4 -275 -5 -130 -1 -209 -5 -201 -10 8 -5 20 -7 27 -4 6 2 15 0 19 -6 4 -8
-81 -11 -282 -13 -158 0 -294 -1 -300 -1 -7 1 -13 -6 -13 -14 0 -8 4 -12 9 -8
5 3 12 1 16 -5 4 -6 -9 -10 -34 -10 -30 0 -41 -4 -41 -15 0 -8 -5 -15 -11 -15
-5 0 -7 5 -4 10 3 6 1 10 -4 10 -6 0 -11 -16 -11 -35 0 -24 -5 -35 -15 -35
-10 0 -16 -16 -21 -50 -4 -27 -10 -50 -15 -50 -5 0 -6 7 -3 15 4 8 2 15 -4 15
-10 0 -22 -46 -22 -86 0 -13 -5 -24 -11 -24 -6 0 -9 7 -5 15 3 8 1 15 -4 15
-6 0 -10 -15 -11 -32 -1 -46 -12 -80 -24 -76 -5 2 -11 -14 -13 -34 -3 -30 -7
-38 -23 -38 -16 0 -19 -7 -19 -40 0 -30 -3 -38 -14 -34 -10 4 -16 -6 -21 -35
-4 -25 -12 -41 -21 -41 -9 0 -14 -12 -14 -35 0 -28 -4 -35 -20 -35 -19 0 -26
-24 -21 -67 1 -7 -7 -13 -19 -13 -17 0 -20 -6 -20 -40 0 -27 -4 -40 -14 -40
-8 0 -17 -15 -20 -35 -4 -20 -13 -35 -21 -35 -8 0 -16 -16 -20 -40 -4 -25 -12
-40 -21 -40 -9 0 -14 -12 -14 -35 0 -23 -5 -35 -14 -35 -9 0 -17 -15 -21 -40
-4 -24 -12 -40 -20 -40 -8 0 -17 -15 -21 -35 -3 -20 -12 -35 -20 -35 -10 0
-14 -13 -14 -40 0 -33 -3 -40 -20 -40 -16 0 -20 -7 -20 -35 0 -28 -4 -35 -20
-35 -17 0 -20 -7 -20 -40 0 -28 -4 -40 -14 -40 -9 0 -17 -15 -21 -40 -4 -25
-12 -40 -21 -40 -9 0 -14 -12 -14 -35 0 -28 -4 -35 -20 -35 -16 0 -20 -7 -21
-37 0 -21 -4 -47 -9 -58 l-9 -20 -1 20 -1 20 -9 -20 c-5 -11 -9 -35 -9 -52 -1
-21 -6 -33 -15 -33 -9 0 -17 -15 -21 -40 -4 -23 -12 -40 -20 -40 -7 0 -16 -16
-19 -35 -4 -21 -13 -35 -21 -35 -11 0 -15 -12 -15 -40 0 -29 -4 -40 -15 -40
-10 0 -17 -14 -21 -40 -5 -29 -11 -40 -24 -40 -10 0 -18 -6 -17 -12 1 -39 -5
-58 -18 -58 -11 0 -15 -11 -15 -40 0 -33 -4 -40 -19 -40 -10 0 -19 -6 -18 -12
2 -65 -4 -88 -23 -88 -17 0 -20 -7 -20 -40 0 -28 -4 -40 -14 -40 -9 0 -17 -15
-21 -39 -5 -29 -11 -38 -21 -34 -11 4 -14 -5 -14 -36 0 -34 -3 -41 -20 -41
-13 0 -20 -7 -20 -20 0 -13 -7 -20 -20 -20 -14 0 -20 -6 -18 -17 3 -17 -13
-18 -204 -21 -115 -1 -208 -6 -208 -11 0 -5 9 -7 20 -4 11 3 20 0 20 -6 0 -7
-27 -11 -77 -11 -163 0 -303 -12 -303 -27 0 -8 -12 -13 -35 -13 -33 0 -35 2
-35 35 0 23 5 35 14 35 9 0 17 15 21 39 5 29 11 38 21 34 10 -4 14 2 14 21 0
19 5 26 19 26 16 0 20 9 23 50 l3 50 -57 0 c-32 0 -58 -4 -58 -10 0 -5 7 -6
17 -3 11 4 14 3 9 -5 -5 -9 -74 -12 -243 -12 -205 0 -234 -2 -229 -15 4 -13
-10 -15 -92 -15 -53 0 -205 -3 -338 -7 -171 -4 -243 -3 -248 5 -10 17 4 62 20
62 10 0 14 12 14 39 0 30 4 40 20 44 11 3 19 11 18 18 -2 8 7 15 20 17 13 2
22 10 22 21 0 16 10 18 83 18 565 1 820 5 807 12 -8 6 -17 8 -21 5 -4 -2 -10
0 -14 6 -4 6 23 10 74 11 45 1 86 3 91 4 6 1 55 3 110 4 82 1 100 4 100 16 0
8 9 15 20 15 16 0 20 7 20 35 0 19 5 35 11 35 5 0 8 -4 4 -9 -3 -5 -1 -12 5
-16 6 -3 11 4 11 17 1 13 2 28 4 33 1 6 3 20 3 33 1 12 7 22 13 22 6 0 9 -7 5
-15 -3 -8 -1 -15 4 -15 6 0 11 10 11 23 1 12 2 27 4 32 1 6 3 18 3 28 2 22 19
22 25 0 3 -10 5 7 6 38 1 48 4 57 21 62 15 4 20 14 20 41 0 29 4 36 20 36 11
0 20 7 20 15 0 8 6 15 14 15 9 0 17 15 21 40 4 25 12 40 21 40 10 0 14 12 14
38 l0 39 -72 -1 c-40 -1 -76 -5 -80 -11 -5 -6 -8 -4 -8 5 0 13 -1 13 -10 0 -7
-10 -10 -11 -11 -2 -1 6 -2 18 -3 25 -1 6 2 17 6 24 6 8 3 11 -9 9 -10 -2 -21
4 -26 13 -5 12 -6 11 -4 -5 3 -12 0 -29 -5 -38 -5 -9 -5 -22 -1 -29 9 -14 85
-18 94 -4 3 5 9 1 13 -8 5 -15 -6 -16 -118 -14 -121 3 -139 9 -112 36 4 4 6 3
4 -2 -1 -6 2 -11 7 -12 6 -2 10 1 10 7 0 5 6 15 14 22 12 11 12 10 5 -2 -5 -8
-9 -21 -10 -27 -4 -22 10 -14 22 11 16 35 -3 52 -30 28 -17 -14 -18 -14 -8 -1
10 13 9 19 -2 28 -11 10 -17 8 -26 -6 -9 -14 -10 -14 -7 -2 3 9 0 22 -6 28 -6
6 -7 11 -3 11 5 0 3 7 -4 15 -7 8 -17 12 -24 8 -6 -3 -8 -3 -4 2 4 4 3 14 -4
22 -6 8 -7 13 -2 11 5 -2 10 2 12 7 1 6 -2 10 -7 10 -5 0 -13 4 -18 9 -5 5 -3
6 5 2 8 -5 12 1 12 19 0 15 -4 24 -10 20 -6 -4 -8 -10 -5 -15 8 -14 -24 -5
-38 10 -10 12 -9 12 5 2 13 -10 18 -10 24 0 10 16 12 58 2 64 -7 5 -13 -28 -9
-50 1 -5 -6 -3 -15 5 -9 8 -19 13 -21 11 -3 -2 -7 -1 -10 2 -3 3 3 4 15 1 15
-2 21 3 25 21 2 13 1 27 -3 29 -5 3 -6 15 -2 27 5 21 6 21 14 2 6 -13 7 -10 2
11 -9 48 -8 79 4 72 4 -3 7 -32 7 -65 0 -48 3 -59 15 -55 12 4 12 3 1 -5 -11
-8 -11 -10 0 -15 10 -4 10 -6 2 -6 -7 -1 -13 -9 -13 -18 0 -14 2 -15 9 -4 6 9
11 10 15 2 4 -6 3 -11 -2 -11 -11 0 -3 -58 10 -66 5 -3 5 -11 -2 -19 -7 -8 -7
-15 -1 -19 13 -8 25 32 14 47 -5 7 -10 23 -11 37 -1 18 1 21 8 11 4 -8 6 -21
3 -30 -4 -14 -3 -14 6 -1 9 13 11 13 12 0 1 -8 1 -21 0 -28 -1 -6 3 -20 9 -30
9 -14 10 -12 6 13 l-5 30 14 -30 c11 -24 14 -26 15 -10 1 11 4 14 7 8 2 -7 -2
-26 -10 -43 -9 -17 -11 -32 -6 -36 5 -3 12 10 16 28 7 32 7 33 15 8 5 -18 6
-13 3 15 -5 39 -5 39 9 15 8 -13 12 -37 10 -53 -2 -22 0 -28 12 -23 9 4 18 -3
24 -17 8 -19 9 -18 6 10 -2 17 -1 34 2 38 10 10 11 35 1 29 -5 -3 -7 -9 -4
-14 3 -4 -2 -13 -10 -20 -13 -11 -15 -10 -12 6 1 11 6 24 10 30 4 7 0 17 -8
24 -12 10 -13 16 -3 29 10 12 8 12 -8 -2 -18 -14 -23 -15 -32 -4 -9 10 -8 17
1 27 10 12 9 12 -5 1 -10 -7 -17 -16 -16 -19 2 -20 -3 -25 -12 -12 -6 10 -4
20 6 31 12 13 12 19 3 25 -7 4 -10 3 -6 -3 4 -6 -1 -17 -10 -24 -15 -12 -16
-12 -10 4 4 10 0 28 -9 42 -9 14 -14 31 -11 40 4 8 2 17 -3 20 -5 3 -7 -11 -5
-30 2 -28 0 -34 -10 -25 -8 6 -12 27 -10 53 2 23 1 34 -2 25 -2 -10 -8 -18
-13 -18 -5 0 -5 13 0 30 6 21 5 28 -2 24 -7 -4 -8 7 -4 34 3 23 1 44 -4 47 -6
4 -7 -1 -3 -11 4 -12 3 -15 -6 -10 -8 5 -14 1 -18 -13 -3 -11 -9 -18 -14 -15
-5 3 -2 18 6 34 8 16 11 31 6 34 -4 3 -7 23 -6 44 1 26 -2 39 -11 39 -8 0 -10
-5 -6 -11 11 -15 9 -47 -5 -71 -11 -17 -12 -14 -8 22 2 24 0 45 -5 48 -5 3 -7
12 -4 20 4 8 11 12 17 8 6 -3 7 -1 3 6 -4 6 -12 9 -17 5 -12 -7 -1 45 15 66 5
8 6 12 1 7 -5 -4 -26 9 -47 30 -28 27 -35 40 -27 49 6 8 9 19 6 26 -4 8 -6 7
-6 -4 -1 -10 -5 -18 -10 -18 -4 0 -6 11 -3 25 2 15 9 22 16 18 6 -3 3 3 -7 14
-12 14 -15 23 -7 28 7 4 4 15 -9 31 -11 14 -17 32 -14 40 5 12 7 13 14 3 4 -7
6 -16 4 -20 -3 -3 4 -14 15 -24 14 -13 17 -22 10 -30 -7 -9 -6 -16 4 -24 10
-8 16 -9 21 -1 4 6 3 9 -2 8 -7 -3 -15 7 -12 15 6 19 6 36 -1 32 -12 -7 -27
18 -25 42 1 15 -3 20 -16 18 -19 -4 -32 35 -19 55 9 15 18 1 15 -21 -2 -9 3
-16 10 -16 13 0 14 13 4 32 -3 6 -5 27 -4 47 1 20 -2 35 -6 32 -4 -2 -6 -12
-4 -22 1 -9 -4 -24 -12 -34 -8 -9 -16 -35 -17 -58 -2 -23 0 -36 4 -30 4 7 8 2
8 -14 0 -14 -5 -26 -10 -26 -5 0 -7 4 -3 9 3 5 1 12 -5 16 -5 3 -10 -1 -10 -9
0 -8 8 -20 18 -25 13 -8 14 -10 2 -11 -13 0 -13 -1 0 -10 8 -5 10 -10 4 -10
-8 0 -8 -10 0 -35 10 -33 12 -34 18 -13 5 19 6 17 5 -9 -1 -17 5 -38 12 -47
10 -12 10 -16 2 -16 -8 0 -7 -6 3 -16 9 -8 16 -21 16 -27 0 -7 -7 -4 -14 5
-13 17 -26 14 -26 -5 0 -6 3 -7 7 -4 13 14 31 -15 27 -46 -3 -27 -2 -29 6 -12
9 17 10 16 5 -7 -3 -15 0 -30 7 -34 7 -5 9 -2 6 8 -4 9 0 15 8 15 15 0 18 -9
7 -21 -9 -9 -13 -37 -5 -32 4 2 8 -12 9 -32 1 -19 8 -39 15 -43 11 -7 11 -9 0
-9 -7 0 -10 -5 -6 -11 4 -8 9 -7 15 2 6 10 8 5 5 -14 -3 -15 -1 -25 4 -22 4 3
6 -5 4 -17 -4 -21 -4 -22 5 -3 5 11 10 14 10 7 1 -19 -24 -64 -46 -85 -16 -14
-20 -14 -20 -3 0 8 3 14 6 13 3 -1 6 3 6 8 0 6 -4 9 -10 7 -5 -2 -2 5 8 16 9
10 14 22 11 25 -4 4 -13 -1 -21 -11 -13 -16 -14 -16 -5 2 5 10 6 34 2 52 -4
19 -4 37 1 40 5 3 9 14 9 25 0 11 -5 17 -10 14 -6 -4 -8 -10 -5 -15 3 -4 -3
-14 -13 -21 -15 -13 -16 -12 -4 3 8 10 9 19 3 22 -12 8 -11 46 1 63 5 6 5 14
-1 17 -5 4 -13 -4 -17 -16 -11 -33 -11 -41 -1 -63 7 -15 7 -17 -2 -9 -7 6 -13
19 -15 27 -1 9 -11 26 -21 39 -11 13 -16 20 -11 16 13 -11 36 11 29 28 -3 7
-9 12 -13 9 -5 -3 -7 3 -5 12 3 21 -13 45 -25 38 -5 -3 -12 0 -16 6 -4 7 -3 9
4 5 6 -3 13 -2 17 4 4 6 11 8 16 5 5 -4 7 4 5 17 -3 13 -5 26 -5 30 -1 8 -22
5 -40 -7 -8 -5 -5 5 7 22 14 20 18 34 12 38 -6 4 -8 10 -5 15 3 5 1 11 -3 14
-5 3 -8 27 -6 53 3 55 -2 68 -21 53 -9 -7 -16 -6 -26 7 -12 16 -12 17 2 6 16
-13 29 -8 29 9 0 5 -4 7 -8 4 -8 -5 -12 8 -13 47 0 15 -3 16 -15 6 -10 -8 -11
-15 -4 -24 7 -9 5 -16 -7 -26 -15 -11 -16 -11 -6 1 19 21 -12 53 -38 40 -14
-8 -16 -16 -10 -38 7 -23 5 -28 -10 -29 -16 -1 -19 5 -19 37 0 29 4 37 16 36
25 -2 28 101 3 107 -14 4 -19 -3 -24 -34 -4 -24 -12 -39 -21 -39 -8 0 -14 -9
-14 -20 0 -13 -7 -20 -20 -20 -12 0 -20 -6 -19 -12 5 -44 -2 -68 -21 -68 -17
0 -20 -7 -20 -50 0 -36 -4 -50 -14 -50 -9 0 -17 -15 -21 -40 -4 -25 -12 -40
-21 -40 -9 0 -14 -12 -14 -35 0 -28 -4 -35 -20 -35 -17 0 -20 -7 -20 -40 0
-33 -3 -40 -20 -40 -17 0 -20 -7 -20 -41 0 -32 -3 -40 -15 -35 -12 4 -15 -3
-15 -30 0 -27 -5 -37 -19 -41 -12 -3 -21 -17 -26 -39 -3 -20 -12 -34 -20 -34
-11 0 -15 -12 -15 -40 0 -33 -3 -40 -20 -40 -16 0 -20 -7 -20 -34 0 -25 -5
-35 -20 -39 -15 -4 -20 -14 -20 -41 0 -25 -4 -36 -15 -36 -11 0 -15 -11 -15
-40 0 -33 -3 -40 -20 -40 -16 0 -20 -7 -20 -35 0 -28 -4 -35 -20 -35 -17 0
-20 -7 -20 -40 0 -28 -4 -40 -14 -40 -15 0 -30 -45 -21 -60 4 -6 -3 -10 -14
-10 -16 0 -20 -8 -23 -37 -2 -30 -7 -37 -20 -35 -15 2 -18 -5 -18 -38 0 -33
-3 -40 -20 -40 -17 0 -20 -7 -20 -40 0 -29 -4 -40 -15 -40 -10 0 -15 -11 -15
-35 0 -28 -4 -35 -20 -35 -16 0 -20 -7 -20 -36 0 -27 -5 -37 -20 -41 -16 -4
-20 -14 -20 -45 0 -30 -3 -39 -14 -35 -14 6 -26 -30 -26 -79 0 -13 -5 -24 -11
-24 -6 0 -9 7 -5 15 3 8 2 15 -3 15 -11 0 -21 -36 -21 -77 0 -25 -4 -31 -15
-27 -12 5 -15 -3 -15 -35 0 -34 -3 -41 -20 -41 -17 0 -20 -7 -20 -40 0 -33 -3
-40 -20 -40 -16 0 -20 -7 -20 -35 0 -23 -5 -35 -14 -35 -9 0 -17 -15 -21 -40
-4 -25 -12 -40 -21 -40 -8 0 -14 -7 -14 -15 0 -11 -11 -15 -40 -15 -33 0 -40
-3 -40 -20 0 -25 10 -24 -379 -25 l-294 0 -1 -35 -1 -35 60 -2 c33 -1 103 -2
155 -3 72 -1 88 -4 66 -10 -16 -5 -33 -7 -37 -4 -4 2 -10 0 -13 -5 -3 -5 6
-11 19 -14 14 -2 28 0 31 5 3 5 13 3 21 -4 9 -7 18 -12 20 -10 10 7 53 0 53
-9 0 -6 -7 -9 -15 -6 -8 4 -17 2 -20 -3 -4 -6 25 -11 72 -11 43 -1 102 -2 130
-3 33 0 54 -5 58 -13 3 -10 0 -11 -15 -3 -12 7 -21 7 -25 0 -3 -5 -5 -10 -3
-11 8 -2 92 -7 176 -11 70 -2 92 -6 92 -17 0 -10 -3 -11 -14 -2 -10 9 -16 9
-21 1 -4 -6 -4 -14 -1 -17 3 -4 6 -1 6 7 0 8 4 9 13 3 11 -8 20 -9 43 -4 4 0
1 7 -5 14 -8 10 -7 14 3 14 8 0 13 -8 11 -18 -3 -16 12 -18 208 -20 326 -3
336 -3 331 -8 -3 -3 -82 -7 -176 -8 -95 -2 -174 -6 -177 -8 -2 -3 103 -5 235
-6 487 -2 765 2 760 10 -2 3 -68 6 -145 5 -78 -1 -141 2 -141 6 0 4 96 7 213
7 290 0 379 4 396 17 11 8 13 8 8 0 -4 -7 7 -11 33 -10 22 0 40 5 40 10 0 5 6
3 14 -3 9 -8 16 -8 20 -2 4 6 13 8 20 5 8 -3 17 -1 20 4 3 5 -6 8 -19 6 -14
-1 -25 1 -25 5 0 4 35 9 78 10 42 2 111 4 152 5 50 2 74 7 73 15 -3 13 -10 12
91 16 84 4 110 10 102 23 -2 4 25 9 62 11 99 4 116 6 130 14 7 5 12 3 12 -5 0
-9 3 -10 8 -2 4 6 15 10 25 8 13 -2 17 2 13 12 -4 11 5 14 42 16 26 0 53 2 61
2 8 1 18 10 22 21 6 17 8 17 8 3 1 -13 9 -18 31 -18 17 0 30 4 30 9 0 4 -11 7
-25 6 -14 -2 -25 0 -25 5 0 4 46 9 103 10 56 1 108 2 115 3 6 0 12 5 12 10 0
5 -7 7 -15 3 -8 -3 -15 -1 -15 4 0 6 7 11 15 11 8 1 24 3 35 4 11 1 40 3 64 4
37 1 43 4 39 19 -3 14 2 18 19 19 13 0 56 1 97 2 77 1 92 9 28 14 -53 5 -52
12 1 15 82 5 170 19 133 21 -19 0 -32 4 -29 7 8 8 63 14 137 16 43 1 57 4 43
9 -12 5 -30 6 -40 4 -10 -2 -19 2 -19 9 0 8 26 13 76 15 81 3 94 7 71 21 -11
7 -7 10 18 11 17 1 37 3 42 4 6 1 29 3 53 4 32 2 37 4 22 10 -11 5 -28 7 -37
5 -10 -1 -18 2 -18 7 0 5 6 9 13 8 6 -1 34 -1 60 0 45 1 48 3 42 24 -4 15 -3
18 3 8 8 -11 11 -11 16 0 3 8 3 4 0 -8 -3 -13 -1 -23 5 -23 6 0 11 9 11 20 0
14 7 20 23 21 12 1 27 2 32 4 6 1 20 3 33 3 12 1 22 6 22 11 0 5 -10 7 -22 4
-13 -3 -20 -3 -16 2 7 7 51 12 128 15 34 1 40 3 25 9 -11 5 -24 6 -30 3 -5 -3
-6 -1 -2 3 8 9 12 10 97 24 30 5 45 9 33 10 -33 2 -38 21 -6 22 15 1 33 2 38
4 6 1 24 3 40 4 22 1 26 4 15 10 -8 6 -18 7 -22 5 -4 -3 -8 -1 -8 4 0 8 44 14
93 13 12 0 17 5 13 15 -3 8 -2 15 2 15 8 2 66 7 95 8 10 1 15 6 12 11 -4 6
-10 8 -15 5 -5 -3 -11 -1 -14 4 -6 9 39 21 88 21 l31 1 -30 14 c-21 10 -24 14
-10 13 11 -1 39 2 62 6 30 5 40 11 36 22 -4 11 5 14 40 14 40 0 45 2 40 20 -5
18 0 20 36 20 30 0 41 4 41 15 0 9 14 17 40 21 22 4 37 11 34 16 -3 5 -13 7
-21 4 -8 -3 -11 -1 -8 4 3 6 22 10 41 10 28 0 34 4 35 23 1 16 2 18 6 5 2 -10
9 -18 14 -18 6 0 9 8 7 18 -2 11 4 17 17 17 11 1 19 6 18 13 -2 7 2 13 7 13 6
1 15 3 20 4 6 1 27 3 48 4 36 2 37 2 13 15 -23 13 -22 14 23 20 34 5 46 11 42
21 -3 9 7 15 35 20 24 4 39 12 39 21 0 8 9 14 20 14 11 0 20 7 20 15 0 8 14
17 35 21 25 4 35 11 35 25 0 14 7 19 25 19 17 0 23 4 19 14 -4 9 6 16 30 20
22 4 36 13 36 21 0 8 9 15 20 15 13 0 20 7 20 20 0 13 7 20 19 20 11 0 21 9
24 21 3 12 10 18 17 14 7 -4 14 2 17 14 3 12 14 22 24 23 11 0 25 1 32 2 6 1
15 10 18 21 3 11 13 19 22 19 10 -1 17 6 17 17 0 12 7 19 20 19 13 0 20 7 20
20 0 11 6 20 14 20 7 0 16 9 19 20 3 11 12 20 21 20 9 0 16 7 16 15 0 8 9 15
20 15 13 0 20 7 20 20 0 14 7 20 21 20 15 0 19 4 15 16 -4 11 1 18 14 21 11 3
20 9 20 14 0 5 -7 6 -15 3 -8 -4 -15 -1 -15 5 0 6 9 11 20 11 14 0 20 7 20 21
0 15 5 19 15 15 11 -4 15 1 15 19 0 18 5 25 20 25 13 0 20 7 20 20 0 13 7 20
19 20 10 0 19 6 18 13 -1 43 4 57 23 57 13 0 20 7 20 20 0 11 7 20 15 20 8 0
15 7 15 16 0 9 9 18 20 21 15 4 20 14 20 39 0 27 4 34 20 34 13 0 20 7 20 20
0 13 7 20 20 20 13 0 20 7 20 20 0 16 7 20 34 20 26 0 35 5 40 23 10 38 7 47
-19 47 -19 0 -25 -5 -25 -20 0 -12 -6 -20 -12 -19 -39 5 -59 -2 -56 -18 2 -12
-4 -19 -19 -21 -13 -2 -23 -10 -23 -17 0 -8 -15 -17 -35 -21 -20 -3 -35 -12
-35 -20 0 -8 -8 -14 -19 -14 -10 0 -21 -9 -24 -20 -4 -15 -14 -20 -36 -20 -24
0 -31 -4 -31 -20 0 -15 -7 -20 -25 -20 -16 0 -25 -6 -25 -15 0 -10 -10 -15
-31 -15 -22 0 -32 -5 -36 -20 -4 -15 -14 -20 -39 -20 -27 0 -34 -4 -34 -20 0
-13 -7 -20 -20 -20 -11 0 -20 -6 -20 -14 0 -9 -15 -17 -40 -21 -25 -4 -40 -12
-40 -21 0 -9 -12 -14 -35 -14 -28 0 -35 -4 -35 -20 0 -16 -7 -20 -34 -20 -25
0 -35 -5 -39 -20 -4 -15 -14 -20 -41 -20 -25 0 -36 -4 -36 -15 0 -11 -11 -15
-36 -15 -27 0 -37 -5 -41 -19 -4 -14 -18 -21 -58 -26 -41 -5 -53 -10 -48 -21
4 -11 -4 -14 -36 -14 -34 0 -41 -3 -41 -20 0 -17 -7 -20 -40 -20 -33 0 -40 -3
-40 -20 0 -16 -7 -20 -35 -20 -24 0 -35 -5 -35 -15 0 -11 -11 -15 -40 -15 -34
0 -40 -3 -40 -20 0 -12 -6 -20 -12 -19 -7 1 -32 1 -55 0 -36 -1 -43 -4 -43
-21 0 -18 -7 -20 -55 -20 -40 0 -55 -4 -55 -14 0 -14 -42 -26 -91 -26 -21 0
-27 -4 -23 -14 5 -12 -7 -16 -53 -18 -49 -3 -58 -6 -55 -20 2 -16 -6 -18 -58
-18 -53 0 -60 -2 -60 -20 0 -18 -7 -20 -55 -20 -41 0 -55 -4 -55 -15 0 -10
-15 -15 -57 -17 -47 -2 -57 -6 -55 -19 2 -14 -11 -18 -77 -24 -62 -5 -78 -10
-74 -21 4 -11 -8 -14 -56 -14 -54 0 -61 -2 -61 -20 0 -18 -7 -20 -75 -20 -67
0 -76 -2 -73 -17 3 -16 -7 -18 -69 -21 -40 -2 -73 -7 -73 -12 0 -5 7 -7 15 -4
8 4 15 1 15 -5 0 -7 -28 -12 -77 -13 -110 -2 -107 -1 -111 -21 -3 -14 -15 -17
-78 -17 -67 0 -74 -2 -74 -20 0 -19 -7 -20 -95 -20 -76 0 -93 -3 -89 -14 6
-17 -36 -26 -123 -26 -54 0 -64 -3 -59 -15 4 -13 -8 -15 -79 -15 -78 0 -85 -2
-85 -20 0 -18 -7 -20 -55 -20 l-55 0 0 33 c0 47 10 77 26 77 10 0 14 13 14 40
0 33 3 40 20 40 16 0 20 7 20 34 0 30 4 34 31 40 17 3 42 6 55 6 13 0 24 4 24
9 0 5 -6 8 -12 7 -16 -1 -18 4 -18 54 0 31 3 38 15 34 11 -5 15 1 16 22 1 16
1 33 0 37 -1 5 8 11 19 14 16 4 20 14 20 44 0 32 3 39 20 39 17 0 20 7 21 43
1 23 1 46 0 50 -1 5 3 6 9 2 6 -3 8 -11 5 -16 -4 -5 -1 -9 4 -9 6 0 11 9 11
20 0 17 7 20 46 20 29 0 43 4 39 11 -4 6 -13 8 -21 5 -7 -3 -16 -1 -19 4 -4 6
31 10 89 10 52 0 97 4 101 10 3 5 12 7 20 3 8 -3 15 -2 15 1 0 4 -10 11 -22
16 -17 6 -4 9 52 10 84 2 123 10 118 25 -2 6 29 11 75 13 64 2 78 6 73 17 -4
12 5 15 39 16 25 1 50 3 55 4 6 1 23 3 40 4 22 1 28 5 24 16 -4 9 0 15 7 16
44 1 135 12 139 16 2 2 -2 8 -10 13 -10 7 8 10 58 11 97 2 97 2 97 19 0 11 15
16 61 18 54 3 61 5 57 21 -4 15 3 18 40 19 31 2 45 -2 43 -10 -3 -25 -16 -35
-39 -33 -14 2 -24 -2 -24 -11 0 -7 4 -11 9 -8 4 3 8 1 8 -5 0 -15 -18 -23 -25
-11 -5 8 -11 8 -19 1 -7 -6 -17 -7 -21 -3 -5 4 -5 2 -1 -5 3 -6 2 -14 -4 -18
-6 -4 -7 -13 -1 -23 11 -22 3 -44 -12 -36 -9 5 -9 4 0 -6 13 -14 6 -43 -8 -34
-5 3 -7 9 -5 13 3 4 -1 8 -9 8 -8 0 -13 -2 -10 -5 2 -3 -7 -24 -21 -47 -29
-51 -37 -82 -22 -91 7 -5 8 -2 3 7 -7 12 -6 11 9 0 16 -13 17 -13 14 5 -2 11
2 18 10 16 13 -2 17 14 5 21 -5 2 -2 2 5 0 8 -1 10 2 6 9 -5 7 -3 8 5 4 8 -5
14 0 18 15 6 21 7 21 13 4 4 -12 9 -15 13 -8 4 6 1 18 -7 25 -12 13 -11 16 5
26 23 15 24 35 3 66 -10 16 -12 26 -5 31 6 3 12 4 12 1 3 -13 6 -22 13 -39 5
-9 6 -26 3 -37 -3 -11 -1 -23 4 -26 8 -5 14 23 10 53 -1 6 4 15 10 19 9 5 10
2 6 -9 -3 -9 -2 -19 2 -22 16 -9 20 22 6 49 -9 16 -10 28 -4 32 6 3 8 12 5 20
-3 8 -1 14 5 14 6 0 10 -10 9 -22 -4 -45 0 -69 10 -63 6 4 7 13 2 23 -5 9 -6
28 -1 42 7 25 7 25 8 2 1 -13 5 -21 11 -17 5 3 6 13 3 23 -3 9 -3 14 1 11 4
-4 8 -16 11 -28 2 -11 7 -26 10 -31 4 -6 3 -9 -2 -8 -4 2 -8 -1 -8 -7 0 -5 5
-9 10 -7 6 2 -1 -8 -15 -23 -14 -15 -23 -29 -22 -32 2 -2 1 -7 -2 -10 -3 -3
-4 4 -1 15 2 12 0 24 -6 27 -9 6 -10 2 -13 -33 0 -11 -7 -26 -15 -35 -7 -10
-10 -17 -7 -17 4 0 2 -8 -3 -18 -7 -13 -7 -22 0 -29 6 -6 5 -10 -5 -10 -13 0
-14 14 -4 42 1 6 -1 11 -7 13 -5 1 -10 -2 -10 -7 0 -5 -3 -12 -7 -16 -4 -4 -4
-14 -1 -23 4 -13 1 -12 -11 3 -13 14 -16 15 -13 4 3 -9 -1 -16 -8 -16 -7 0
-11 6 -8 14 10 25 -5 13 -26 -21 -15 -23 -28 -33 -44 -32 -24 1 -40 33 -25 53
6 7 4 14 -3 19 -7 4 -9 3 -5 -4 3 -6 2 -13 -3 -17 -6 -3 -8 -12 -4 -20 3 -8 2
-23 -3 -32 -4 -10 -8 -26 -8 -35 -1 -9 -5 -20 -9 -25 -5 -4 -7 -2 -5 6 2 11
-8 15 -39 16 -33 1 -43 -3 -43 -15 0 -13 -1 -13 -10 0 -9 13 -10 13 -11 0 0
-10 -3 -8 -9 5 -8 19 -9 19 -9 -2 -1 -22 3 -23 74 -23 66 0 75 2 75 18 0 16 7
18 55 14 51 -4 55 -2 55 17 0 12 6 21 13 22 6 0 32 1 57 2 37 2 44 5 42 20 -2
15 6 17 58 17 44 0 60 4 60 14 0 16 30 26 82 26 29 0 36 3 32 15 -4 11 1 15
17 16 13 1 29 2 34 4 6 1 22 3 37 3 20 2 26 6 22 17 -5 12 5 15 55 15 53 0 61
2 59 18 -2 13 5 18 33 20 27 2 38 9 42 23 3 11 9 19 14 18 4 -1 27 -1 51 0 30
1 42 5 42 16 0 11 11 15 36 15 27 0 37 5 41 20 4 16 14 20 44 20 32 0 39 3 39
20 0 11 3 19 8 19 4 -1 26 -1 48 0 33 1 43 5 47 21 4 15 14 20 41 20 25 0 36
4 36 15 0 10 11 15 35 15 28 0 35 4 35 20 0 19 17 25 68 23 6 -1 12 8 12 18 0
15 7 19 35 19 19 0 35 4 35 10 0 5 -7 7 -15 4 -8 -4 -15 -1 -15 5 0 6 10 12
23 12 47 3 52 5 49 21 -2 12 8 18 37 23 29 5 38 11 34 21 -4 10 2 14 21 14 16
0 26 6 26 15 0 8 14 17 35 21 26 4 35 11 35 26 0 10 6 18 13 17 35 -4 55 3 60
21 3 13 10 18 21 14 12 -4 16 0 16 15 0 14 6 21 20 21 13 0 20 7 20 20 0 13 7
20 20 20 14 0 20 7 20 21 0 15 5 19 15 15 10 -4 15 1 15 14 0 13 7 20 20 20
13 0 20 7 20 19 0 16 8 20 38 23 25 2 37 8 37 18 0 8 10 16 23 18 12 2 22 10
22 18 0 8 7 14 15 14 8 0 15 9 15 20 0 13 7 20 20 20 13 0 20 7 20 20 0 13 7
20 20 20 17 0 20 7 20 40 0 28 4 40 15 40 8 0 17 14 21 35 3 20 12 35 20 35
10 0 14 15 14 55 0 48 2 55 20 55 19 0 20 7 20 245 0 238 -1 245 -20 245 -18
0 -20 7 -20 55 0 41 -4 55 -14 55 -9 0 -17 16 -21 41 -5 29 -11 39 -21 35 -10
-4 -14 2 -14 19 0 18 -5 25 -19 25 -15 0 -21 8 -23 33 -2 20 -8 32 -18 32 -8
0 -16 10 -18 23 -2 14 -10 22 -23 22 -10 0 -19 6 -19 14 0 7 -9 16 -20 19 -11
3 -20 12 -20 21 0 9 -7 16 -15 16 -8 0 -15 9 -15 20 0 16 -7 20 -35 20 -25 0
-35 4 -35 16 0 9 -9 18 -20 21 -11 3 -20 12 -20 19 0 10 -13 14 -40 14 -33 0
-40 4 -40 19 0 14 -10 21 -35 25 -21 4 -35 13 -35 21 0 8 -9 15 -20 15 -11 0
-20 6 -20 14 0 13 -41 26 -86 26 -13 0 -24 4 -24 10 0 5 7 7 15 4 8 -4 15 -1
15 5 0 6 -18 14 -39 17 -28 4 -38 10 -34 20 5 13 -31 19 -94 17 -7 -1 -13 8
-13 18 0 15 -7 19 -40 19 -34 0 -40 3 -40 20 0 12 -6 20 -12 19 -7 -1 -42 -1
-77 0 -52 1 -62 4 -57 16 4 11 -2 15 -23 15 -49 0 -91 12 -91 26 0 11 -21 14
-95 14 -88 0 -95 1 -95 20 0 18 -8 20 -112 22 -93 2 -113 6 -113 18 0 17 12
16 -185 20 -85 1 -145 5 -132 7 12 2 22 9 22 14 0 5 -294 9 -750 9 -521 0
-750 -3 -750 -11z m2455 -199 c3 -5 1 -10 -4 -10 -6 0 -11 5 -11 10 0 6 2 10
4 10 3 0 8 -4 11 -10z m632 -342 c-3 -8 -6 -5 -6 6 -1 11 2 17 5 13 3 -3 4
-12 1 -19z m-3927 -242 c0 -3 -4 -8 -10 -11 -5 -3 -10 -1 -10 4 0 6 5 11 10
11 6 0 10 -2 10 -4z m-290 -236 c0 -5 -5 -10 -11 -10 -5 0 -7 5 -4 10 3 6 8
10 11 10 2 0 4 -4 4 -10z m-2440 -40 c0 -5 -5 -10 -11 -10 -5 0 -7 5 -4 10 3
6 8 10 11 10 2 0 4 -4 4 -10z m5263 -73 c-2 -4 -8 -5 -13 -2 -4 3 -13 -1 -19
-8 -15 -19 -24 -84 -12 -91 5 -4 10 2 10 11 1 44 7 67 19 69 7 1 8 0 2 -3 -5
-2 -10 -9 -10 -14 0 -6 5 -7 11 -3 6 3 5 -4 -3 -17 -16 -28 -17 -65 -1 -62 18
4 36 -24 22 -33 -7 -4 -9 -3 -5 4 3 6 1 14 -4 17 -8 5 -10 -10 -7 -47 3 -35 8
-52 16 -50 7 1 10 -2 7 -7 -4 -5 -2 -12 3 -16 10 -6 11 -45 1 -42 -3 1 -5 -2
-5 -8 0 -5 4 -9 8 -7 5 1 6 -1 3 -6 -2 -4 -1 -14 4 -22 5 -8 1 -23 -11 -40
-13 -17 -18 -36 -15 -53 3 -15 1 -25 -3 -22 -5 2 -8 -10 -6 -28 3 -34 20 -41
20 -8 0 11 3 22 6 25 3 4 5 -5 5 -18 -1 -14 -5 -28 -8 -31 -11 -11 3 -35 16
-28 7 4 7 1 -1 -9 -7 -8 -9 -18 -5 -22 4 -4 2 -6 -4 -4 -7 2 -12 -1 -12 -7 0
-5 3 -9 7 -8 4 1 8 -5 8 -13 0 -12 -4 -11 -18 2 -10 9 -16 20 -14 24 3 4 -3
14 -12 21 -14 12 -15 11 -8 -11 4 -14 17 -36 29 -50 l21 -25 -22 19 c-20 17
-34 10 -16 -8 10 -10 13 -37 3 -31 -10 6 -19 -16 -12 -32 2 -7 9 -10 16 -6 8
5 8 3 0 -8 -5 -8 -10 -29 -9 -46 1 -30 0 -31 -15 -18 -9 8 -20 12 -23 8 -7 -7
34 -39 45 -36 4 2 5 -4 1 -12 -5 -14 -7 -14 -17 1 -11 14 -13 14 -25 1 -8 -10
-9 -17 -1 -22 5 -3 10 -1 10 6 0 7 3 9 6 6 4 -4 1 -13 -5 -21 -8 -10 -9 -16
-1 -21 6 -3 8 -11 4 -16 -4 -6 -11 -6 -20 2 -17 14 -19 -2 -2 -19 9 -9 15 -9
27 1 14 10 14 10 5 -3 -6 -8 -10 -23 -9 -32 2 -10 -2 -16 -8 -15 -14 3 -16
-25 -2 -36 5 -4 -20 -7 -57 -5 -44 3 -64 0 -60 -7 17 -27 9 -35 -36 -36 -26
-1 -51 -1 -55 0 -5 1 -6 -3 -2 -9 3 -6 11 -8 16 -5 5 4 9 2 9 -3 0 -6 -27 -13
-59 -17 -46 -5 -58 -10 -54 -21 3 -9 -3 -14 -18 -16 -13 0 -28 -2 -34 -3 -5
-2 -23 -3 -38 -4 -17 -1 -26 -5 -22 -12 4 -6 13 -8 21 -5 8 3 14 1 14 -4 0 -6
-26 -11 -57 -12 -87 -2 -88 -2 -88 -18 0 -11 -14 -16 -57 -18 -48 -2 -58 -6
-58 -21 0 -15 -10 -18 -67 -20 -37 -1 -72 -6 -78 -12 -7 -7 -4 -8 8 -4 10 4
17 2 17 -4 0 -6 -18 -11 -44 -11 -67 0 -105 -10 -99 -26 4 -11 -10 -14 -71
-14 -69 0 -76 -2 -76 -20 0 -17 -8 -19 -75 -22 -42 -2 -75 -7 -74 -13 0 -14
-36 -23 -98 -24 l-53 -1 0 40 c0 27 4 40 14 40 8 0 17 15 20 35 4 20 13 35 21
35 8 0 16 16 20 40 4 25 12 40 21 40 10 0 14 12 14 41 0 31 3 40 14 36 10 -4
16 5 21 34 5 28 12 39 25 39 10 0 18 6 17 13 -1 47 5 87 14 87 5 0 8 -4 4 -9
-3 -5 -1 -12 5 -16 6 -4 10 7 10 27 0 48 10 78 26 78 10 0 14 13 14 40 0 33 3
40 20 40 16 0 20 7 20 34 0 26 5 35 21 39 11 3 19 11 18 19 -4 34 2 58 16 58
13 0 19 19 18 58 -1 6 7 12 17 12 13 0 19 11 24 40 4 24 11 39 19 37 7 -1 13
12 15 36 2 23 8 37 17 37 8 0 16 16 20 40 4 23 12 40 20 40 7 0 16 16 19 35 4
21 13 35 21 35 11 0 15 12 15 40 0 33 3 40 18 38 13 -2 18 5 20 33 2 27 9 38
23 42 10 3 19 12 19 21 0 14 31 16 278 17 264 1 431 4 442 8 3 2 -4 6 -15 11
-15 6 -11 8 17 7 20 -1 34 -5 31 -10z m67 7 c0 -8 -19 -13 -24 -6 -3 5 1 9 9
9 8 0 15 -2 15 -3z m-900 -84 c0 -5 -4 -10 -10 -10 -5 0 -10 5 -10 10 0 6 5
10 10 10 6 0 10 -4 10 -10z m861 -318 c-7 -13 -7 -22 0 -29 8 -8 7 -13 -2 -18
-7 -5 -10 -4 -5 3 3 6 2 13 -4 17 -10 6 4 45 16 45 2 0 0 -8 -5 -18z m-3118
-237 c9 -21 -9 -27 -24 -8 -10 12 -10 14 -1 9 6 -4 12 -2 12 3 0 16 7 13 13
-4z m3110 -30 c4 -8 3 -16 -1 -19 -4 -3 -9 4 -9 15 -2 23 3 25 10 4z m-2963
-90 c-6 -7 -6 -15 1 -22 6 -6 5 -10 -5 -10 -10 0 -14 10 -13 33 2 25 5 30 15
22 8 -7 9 -15 2 -23z m-85 16 c3 -5 2 -12 -3 -15 -5 -3 -9 1 -9 9 0 17 3 19
12 6z m15 -117 c0 -8 -19 -13 -24 -6 -3 5 1 9 9 9 8 0 15 -2 15 -3z m139 -107
c-5 -18 -9 -34 -10 -37 -1 -13 -22 48 -23 70 -1 14 -6 32 -10 40 -5 8 5 2 21
-13 28 -26 30 -32 22 -60z m-114 64 c3 -5 2 -12 -3 -15 -5 -3 -9 1 -9 9 0 17
3 19 12 6z m2972 -43 c-3 -7 -5 -2 -5 12 0 14 2 19 5 13 2 -7 2 -19 0 -25z
m1833 18 c0 -3 -4 -8 -10 -11 -5 -3 -10 -1 -10 4 0 6 5 11 10 11 6 0 10 -2 10
-4z m-4803 -55 c0 -11 -5 -18 -9 -15 -4 3 -5 11 -1 19 7 21 12 19 10 -4z m120
-103 c-3 -8 -6 -5 -6 6 -1 11 2 17 5 13 3 -3 4 -12 1 -19z m37 -43 c-4 -8 -10
-13 -15 -10 -4 3 -6 12 -3 20 4 8 10 13 15 10 4 -3 6 -12 3 -20z m2739 -102
c-7 -2 -19 -2 -25 0 -7 3 -2 5 12 5 14 0 19 -2 13 -5z m-56 -49 c0 -6 -12 -10
-28 -9 -25 2 -27 0 -24 -27 3 -23 1 -27 -9 -19 -20 16 -40 -10 -23 -29 9 -11
7 -10 -7 0 -18 14 -19 13 -13 -2 3 -10 2 -20 -4 -23 -5 -4 -8 -3 -7 2 5 21
-15 54 -29 48 -12 -4 -13 -2 -5 7 6 7 11 18 11 23 1 6 17 10 36 10 20 0 37 6
40 14 3 9 0 11 -10 7 -8 -3 -15 -1 -15 4 0 4 20 8 43 7 26 0 44 -6 44 -13z
m-2690 -7 c0 -8 -6 -14 -14 -14 -9 0 -10 4 -2 14 6 7 12 13 14 13 1 0 2 -6 2
-13z m113 -68 c0 -6 -4 -7 -10 -4 -5 3 -10 11 -10 16 0 6 5 7 10 4 6 -3 10
-11 10 -16z m2369 -65 c-6 -8 -15 -11 -20 -8 -14 8 0 25 14 18 7 -4 8 -3 4 2
-5 5 -13 10 -18 10 -19 3 -20 4 -14 15 5 7 14 4 26 -7 14 -13 16 -20 8 -30z
m-2455 20 c3 -8 2 -12 -4 -9 -6 3 -10 10 -10 16 0 14 7 11 14 -7z m2586 12 c0
-2 -8 -10 -17 -17 -16 -13 -17 -12 -4 4 13 16 21 21 21 13z m1617 -38 c-3 -8
-6 -5 -6 6 -1 11 2 17 5 13 3 -3 4 -12 1 -19z m-4023 -20 c-4 -6 -10 -5 -15 3
-14 22 -10 33 6 19 8 -7 12 -17 9 -22z m2228 -40 c-10 -10 -10 -8 -2 37 1 6 4
2 7 -9 3 -10 0 -23 -5 -28z m148 38 c0 -2 -8 -10 -17 -17 -16 -13 -17 -12 -4
4 13 16 21 21 21 13z m1070 -26 c0 -5 -4 -10 -10 -10 -5 0 -10 5 -10 10 0 6 5
10 10 10 6 0 10 -4 10 -10z m-1247 -60 c-3 -11 -9 -17 -14 -15 -4 3 -6 13 -3
23 5 14 4 14 -4 2 -6 -8 -9 -17 -6 -21 2 -4 -3 -10 -11 -13 -8 -3 -14 -11 -13
-17 2 -6 -3 -14 -11 -17 -8 -3 -3 15 14 47 21 38 31 48 41 41 6 -6 10 -20 7
-30z m127 26 c0 -2 -8 -10 -17 -17 -16 -13 -17 -12 -4 4 13 16 21 21 21 13z
m-2264 -38 c1 -18 -1 -27 -3 -20 -3 6 -9 10 -14 6 -12 -7 -11 3 1 27 14 25 15
24 16 -13z m-156 6 c0 -8 -19 -13 -24 -6 -3 5 1 9 9 9 8 0 15 -2 15 -3z m1170
-4 c0 -5 -5 -10 -11 -10 -5 0 -7 5 -4 10 3 6 8 10 11 10 2 0 4 -4 4 -10z
m-2930 -30 c0 -5 -4 -10 -10 -10 -5 0 -10 5 -10 10 0 6 5 10 10 10 6 0 10 -4
10 -10z m4070 -36 c0 -8 -19 -13 -24 -6 -3 5 1 9 9 9 8 0 15 -2 15 -3z m1400
-184 c0 -5 -5 -10 -11 -10 -5 0 -7 5 -4 10 3 6 8 10 11 10 2 0 4 -4 4 -10z
m-5620 -74 c0 -3 -4 -8 -10 -11 -5 -3 -10 -1 -10 4 0 6 5 11 10 11 6 0 10 -2
10 -4z m5510 -6 c0 -5 -2 -10 -4 -10 -3 0 -8 5 -11 10 -3 6 -1 10 4 10 6 0 11
-4 11 -10z m-609 -343 c-10 -9 -11 -8 -5 6 3 10 9 15 12 12 3 -3 0 -11 -7 -18z
m-2497 -746 c3 -4 -6 -6 -19 -3 -14 2 -25 6 -25 8 0 8 39 4 44 -5z m-347 -36
c0 -8 -4 -12 -9 -9 -5 3 -6 10 -3 15 9 13 12 11 12 -6z m47 -1 c5 -13 4 -14
-7 -6 -8 7 -17 9 -20 5 -4 -3 -7 -1 -7 5 0 18 27 14 34 -4z m-724 -34 c0 -7
-46 -7 -54 0 -2 3 9 6 25 6 16 1 29 -2 29 -6z"/>
<path d="M6598 5494 c-3 -12 -1 -29 4 -38 6 -10 5 -16 -1 -16 -10 0 -7 -32 4
-50 3 -6 2 -10 -3 -10 -11 0 -23 25 -28 58 -1 12 1 20 7 17 5 -3 6 1 2 10 -8
24 -25 -4 -17 -29 5 -14 3 -16 -7 -10 -8 4 -4 -5 9 -20 12 -16 19 -32 16 -37
-3 -5 3 -6 12 -2 13 5 15 3 8 -8 -5 -8 -9 -41 -9 -74 0 -38 -4 -59 -11 -58
-14 3 -12 -41 4 -59 9 -11 9 -17 -1 -27 -9 -10 -9 -12 3 -9 8 2 14 -2 15 -9 0
-6 3 -15 8 -19 13 -13 8 -27 -6 -15 -10 8 -14 7 -14 -4 0 -8 4 -12 9 -9 9 6
10 3 13 -48 1 -21 -1 -35 -5 -33 -14 8 -35 -27 -35 -59 -1 -20 -6 -30 -14 -28
-7 1 -10 -2 -6 -8 12 -19 33 8 30 40 -1 16 4 35 11 41 12 10 14 5 10 -30 -2
-23 -8 -47 -14 -54 -5 -6 -8 -24 -5 -39 2 -14 -2 -30 -8 -34 -8 -5 -11 -2 -7
7 3 8 2 23 -2 34 -4 12 -7 -6 -8 -45 0 -68 -3 -87 -15 -106 -4 -7 0 -17 8 -24
11 -9 12 -16 3 -30 -7 -10 -16 -16 -20 -13 -5 2 -4 11 2 18 7 9 6 16 -7 26
-16 12 -17 12 -6 -2 9 -11 9 -19 2 -26 -8 -8 -8 -13 0 -17 7 -5 8 -13 2 -25
-6 -10 -6 -23 0 -32 6 -10 9 -11 9 -1 0 7 10 1 23 -13 l23 -27 -1 35 c0 19 -3
33 -7 31 -8 -5 -1 36 8 45 3 3 4 -3 2 -14 -1 -11 2 -19 9 -18 7 2 10 -11 7
-38 -4 -28 -2 -39 6 -34 6 3 8 10 5 15 -3 4 2 13 10 20 14 12 13 16 -6 36 -25
26 -17 53 9 32 15 -12 16 -11 3 5 -7 9 -10 17 -6 17 4 0 2 6 -4 14 -9 10 -8
16 5 26 14 12 14 14 -1 23 -13 7 -14 11 -4 24 10 12 10 16 -2 24 -8 5 -20 7
-26 4 -7 -2 -13 2 -13 11 0 11 4 12 19 4 25 -13 31 -13 31 1 0 5 -4 8 -8 5
-16 -9 -29 9 -21 29 7 19 8 19 8 -3 1 -13 5 -20 11 -17 7 4 6 13 -1 27 -7 12
-7 18 -1 14 6 -4 8 3 5 16 -3 13 -2 19 3 15 7 -7 12 -43 15 -109 0 -10 4 -20
9 -23 9 -6 6 62 -4 72 -3 3 1 17 9 29 8 13 11 25 6 29 -6 3 -9 13 -9 23 1 9
-2 27 -6 39 -4 12 -2 24 3 27 6 4 7 14 4 24 -7 18 -5 17 17 -12 13 -18 13 -19
0 -11 -13 8 -13 6 -1 -8 7 -9 17 -14 22 -11 9 5 5 17 -14 42 -12 15 -17 62 -9
76 3 6 7 21 9 35 5 44 6 50 12 49 18 -2 21 4 11 22 -6 11 -15 18 -20 15 -13
-8 -6 21 9 39 12 14 11 19 -4 36 -23 25 -28 20 -15 -14 6 -18 6 -25 0 -21 -6
3 -10 13 -10 21 0 15 -21 15 -32 -1 -9 -12 -28 36 -20 50 3 5 9 -1 12 -15 6
-24 7 -23 13 9 4 19 3 39 -1 45 -5 6 -7 17 -6 24 1 6 2 17 3 24 2 22 13 -1 17
-36 1 -20 6 -41 10 -48 4 -7 3 -8 -4 -4 -8 5 -12 -1 -12 -15 0 -22 1 -22 14
-4 26 36 -6 147 -37 128 -7 -4 -8 1 -3 13 4 10 10 33 12 49 3 23 2 26 -5 10
l-8 -20 -5 20 c-4 19 -4 19 -10 -1z m25 -91 c-3 -7 -6 -13 -8 -13 -2 0 -5 6
-8 13 -3 8 1 14 8 14 7 0 11 -6 8 -14z m7 -67 c0 -7 -6 -13 -14 -13 -11 0 -13
9 -7 35 2 9 21 -11 21 -22z m-10 -102 c0 -14 -4 -23 -9 -19 -6 3 -8 -8 -6 -26
4 -25 2 -29 -9 -19 -16 13 -15 32 3 54 7 9 11 23 7 31 -3 9 -2 13 4 10 6 -3
10 -17 10 -31z m20 -19 c-5 -31 -3 -51 6 -63 7 -9 14 -12 14 -6 0 5 -4 14 -8
20 -5 5 -5 25 -1 44 l6 35 2 -32 c1 -26 4 -31 19 -27 16 5 16 5 0 -6 -9 -6
-15 -17 -12 -24 3 -8 1 -17 -5 -20 -5 -4 -8 -17 -5 -31 2 -13 0 -27 -6 -30 -5
-3 -10 -16 -9 -28 0 -21 1 -21 9 -2 6 14 9 15 9 5 1 -9 -3 -20 -9 -26 -11 -11
-21 -80 -12 -88 3 -4 6 -16 7 -28 2 -19 1 -19 -10 -4 -11 15 -14 14 -23 -14
-6 -16 -13 -30 -16 -30 -6 0 -2 23 8 39 18 28 28 190 13 209 -5 6 -6 12 -2 12
4 0 2 6 -4 14 -9 10 -9 16 -1 21 6 4 8 15 5 25 -3 10 -1 21 5 25 5 3 10 17 10
31 0 13 4 24 8 24 5 0 6 -20 2 -45z m-55 -455 c3 -13 1 -28 -4 -34 -5 -6 -5
-20 0 -31 9 -18 9 -18 5 2 -2 13 0 26 5 29 5 3 7 18 4 35 -3 16 -1 29 4 29 15
0 23 -18 11 -25 -7 -4 -7 -12 0 -25 7 -13 7 -21 0 -25 -5 -3 -10 -13 -10 -21
0 -10 5 -12 13 -8 8 5 8 3 -2 -9 -7 -9 -17 -14 -22 -12 -4 3 -13 -4 -19 -15
-6 -11 -7 -20 -3 -20 4 0 1 -5 -7 -10 -8 -5 -10 -10 -4 -10 7 0 14 -10 17 -22
6 -23 6 -23 -9 -3 -9 11 -20 19 -25 17 -11 -3 -6 8 23 50 16 23 16 28 4 41 -8
8 -12 18 -9 21 8 8 15 35 14 60 0 24 8 15 14 -14z"/>
<path d="M6624 5138 c1 -13 5 -29 9 -35 5 -7 5 -18 1 -25 -4 -6 -3 -8 4 -4 13
8 10 62 -5 77 -7 7 -10 3 -9 -13z"/>
<path d="M6534 5464 c1 -8 4 -15 7 -16 2 -2 3 -1 2 1 -2 2 2 9 7 16 7 8 5 12
-4 12 -8 0 -13 -6 -12 -13z"/>
<path d="M5905 5450 c-3 -5 -1 -10 4 -10 6 0 11 5 11 10 0 6 -2 10 -4 10 -3 0
-8 -4 -11 -10z"/>
<path d="M6546 5400 c5 -8 9 -18 9 -22 0 -3 3 -9 7 -13 3 -4 5 0 4 9 -1 9 -8
22 -16 29 -10 10 -11 9 -4 -3z"/>
<path d="M6525 5381 c-3 -5 -2 -12 3 -15 5 -3 9 1 9 9 0 17 -3 19 -12 6z"/>
<path d="M6559 5336 c5 -6 7 -19 5 -29 -1 -11 0 -16 4 -12 12 12 9 52 -4 52
-9 0 -10 -5 -5 -11z"/>
<path d="M5830 5300 c0 -5 5 -10 11 -10 5 0 7 5 4 10 -3 6 -8 10 -11 10 -2 0
-4 -4 -4 -10z"/>
<path d="M5801 5224 c0 -11 3 -14 6 -6 3 7 2 16 -1 19 -3 4 -6 -2 -5 -13z"/>
<path d="M6556 5162 c-3 -5 1 -9 9 -9 8 0 12 4 9 9 -3 4 -7 8 -9 8 -2 0 -6 -4
-9 -8z"/>
<path d="M5755 5150 c-3 -5 -1 -10 4 -10 6 0 11 5 11 10 0 6 -2 10 -4 10 -3 0
-8 -4 -11 -10z"/>
<path d="M6559 5086 c4 -6 7 -24 6 -39 -1 -15 2 -30 7 -33 5 -3 3 -13 -4 -22
-9 -12 -6 -11 10 2 25 22 27 27 10 24 -9 -2 -13 11 -12 38 0 27 -4 41 -13 41
-7 0 -9 -5 -4 -11z"/>
<path d="M6593 5045 c0 -8 4 -12 9 -9 5 3 6 10 3 15 -9 13 -12 11 -12 -6z"/>
<path d="M5685 5000 c-3 -5 -1 -10 4 -10 6 0 11 5 11 10 0 6 -2 10 -4 10 -3 0
-8 -4 -11 -10z"/>
<path d="M5605 4850 c-3 -5 -1 -10 4 -10 6 0 11 5 11 10 0 6 -2 10 -4 10 -3 0
-8 -4 -11 -10z"/>
<path d="M5565 4781 c-3 -5 -2 -12 3 -15 5 -3 9 1 9 9 0 17 -3 19 -12 6z"/>
<path d="M6524 4734 c0 -20 11 -25 11 -6 0 4 3 12 7 18 4 6 1 11 -5 11 -7 0
-13 -11 -13 -23z"/>
<path d="M6495 4653 c2 -10 4 -20 5 -23 1 -3 2 -9 1 -13 -1 -5 3 -6 9 -2 8 5
7 12 -2 22 -7 9 -11 18 -10 20 2 3 1 7 -1 10 -3 3 -4 -3 -2 -14z"/>
<path d="M3789 4608 c-6 -20 -6 -39 0 -42 4 -3 7 6 7 20 0 20 -4 32 -7 22z"/>
<path d="M6414 4219 c-2 -4 -1 -15 2 -24 6 -15 8 -14 25 1 11 9 19 21 19 25 0
9 -40 7 -46 -2z m30 -11 c-3 -4 -9 -8 -15 -8 -5 0 -9 4 -9 8 0 5 7 9 15 9 8 0
12 -4 9 -9z"/>
<path d="M2890 6290 c0 -5 5 -10 10 -10 6 0 10 5 10 10 0 6 -4 10 -10 10 -5 0
-10 -4 -10 -10z"/>
<path d="M5026 5495 c5 -13 -14 -15 -132 -17 -77 0 -143 -2 -149 -3 -5 -2 -30
-4 -55 -5 -25 -2 -35 -5 -22 -7 12 -2 22 -9 22 -14 0 -5 -53 -10 -117 -11 -65
0 -122 -2 -128 -3 -5 -2 -38 -3 -72 -4 -51 -1 -61 -4 -57 -16 5 -12 -17 -15
-148 -17 -110 -2 -152 -6 -151 -15 1 -6 -15 -14 -37 -18 -38 -6 -40 -9 -40
-41 l0 -34 54 0 c56 0 84 15 44 23 -13 2 29 5 93 6 122 1 179 8 179 22 0 4 -8
10 -17 12 -10 3 30 5 88 6 133 1 230 11 223 23 -3 4 -10 6 -15 3 -5 -4 -9 -1
-9 5 0 6 6 10 13 9 47 -6 357 3 357 10 0 5 -10 12 -22 14 -19 4 77 11 120 10
7 -1 12 13 12 38 0 32 -3 39 -20 39 -13 0 -18 -5 -14 -15z"/>
<path d="M1165 5460 c4 -6 11 -8 16 -5 14 9 11 15 -7 15 -8 0 -12 -5 -9 -10z"/>
<path d="M3681 5304 c0 -11 3 -14 6 -6 3 7 2 16 -1 19 -3 4 -6 -2 -5 -13z"/>
<path d="M3572 5046 c1 -10 8 -17 13 -17 15 1 12 24 -3 29 -9 3 -13 -2 -10
-12z"/>
<path d="M3725 5020 c3 -4 -4 -15 -15 -25 -14 -13 -17 -22 -9 -31 6 -8 6 -14
0 -18 -18 -11 -24 34 -7 53 13 15 14 18 2 18 -8 0 -15 -3 -14 -6 1 -17 -16
-50 -23 -45 -5 3 -6 10 -3 16 5 7 2 8 -5 3 -9 -5 -10 -10 -2 -18 6 -6 11 -15
11 -21 0 -6 -5 -5 -12 2 -15 15 -48 -3 -48 -26 1 -14 4 -13 20 7 11 13 21 19
21 15 1 -5 3 -18 4 -30 1 -11 10 -33 20 -48 14 -20 20 -24 26 -14 12 17 11 48
0 48 -5 0 -8 -8 -6 -17 1 -10 0 -12 -2 -5 -3 7 -8 10 -11 8 -4 -2 -8 9 -9 26
0 18 2 25 7 18 4 -7 10 -8 12 -4 3 5 3 3 2 -3 -2 -7 0 -13 5 -13 9 0 22 33 25
61 0 9 9 26 19 36 14 16 14 20 2 20 -8 0 -12 -3 -10 -7z"/>
<path d="M8780 4935 c0 -8 7 -15 15 -15 8 0 15 7 15 15 0 8 -7 15 -15 15 -8 0
-15 -7 -15 -15z"/>
<path d="M3773 4885 c0 -8 4 -12 9 -9 5 3 6 10 3 15 -9 13 -12 11 -12 -6z"/>
<path d="M3541 4864 c0 -11 3 -14 6 -6 3 7 2 16 -1 19 -3 4 -6 -2 -5 -13z"/>
<path d="M8708 4863 c7 -3 16 -2 19 1 4 3 -2 6 -13 5 -11 0 -14 -3 -6 -6z"/>
<path d="M3685 4777 c0 -17 4 -38 8 -44 5 -7 5 -13 1 -13 -3 0 -1 -6 5 -14 8
-10 9 -16 1 -21 -5 -3 -10 -12 -10 -18 0 -8 3 -7 9 2 7 11 11 8 17 -10 4 -13
7 -28 5 -34 -1 -5 1 -6 5 -2 14 13 14 41 0 62 -14 21 -29 70 -30 97 -2 32 -12
27 -11 -5z"/>
<path d="M8630 4783 c0 -15 2 -15 9 -4 7 11 10 10 14 -5 4 -16 5 -16 6 4 1 13
-5 22 -14 22 -8 0 -15 -8 -15 -17z"/>
<path d="M8591 4744 c0 -11 3 -14 6 -6 3 7 2 16 -1 19 -3 4 -6 -2 -5 -13z"/>
<path d="M3805 4741 c-3 -5 -2 -12 3 -15 5 -3 9 1 9 9 0 17 -3 19 -12 6z"/>
<path d="M3782 4715 c2 -11 -1 -25 -4 -31 -4 -6 3 -21 16 -33 19 -18 26 -20
32 -9 4 7 3 10 -1 5 -12 -11 -47 24 -36 37 5 6 5 20 0 31 l-9 20 2 -20z"/>
<path d="M8558 4713 c7 -3 16 -2 19 1 4 3 -2 6 -13 5 -11 0 -14 -3 -6 -6z"/>
<path d="M3805 4681 c-3 -5 -2 -12 3 -15 5 -3 9 1 9 9 0 17 -3 19 -12 6z"/>
<path d="M8550 4670 c0 -11 7 -20 15 -20 8 0 15 9 15 20 0 11 -7 20 -15 20 -8
0 -15 -9 -15 -20z"/>
<path d="M8530 4635 c0 -8 4 -15 10 -15 5 0 7 7 4 15 -4 8 -8 15 -10 15 -2 0
-4 -7 -4 -15z"/>
<path d="M3715 4584 c10 -8 16 -17 12 -20 -3 -4 0 -16 8 -27 13 -18 13 -23 -1
-38 -8 -9 -11 -20 -6 -23 14 -8 28 34 27 79 -1 36 -3 39 -29 41 -27 1 -28 0
-11 -12z"/>
<path d="M3836 4548 c3 -5 10 -6 15 -3 13 9 11 12 -6 12 -8 0 -12 -4 -9 -9z"/>
<path d="M3779 4488 c-7 -15 -6 -57 1 -53 6 3 9 17 8 30 -2 22 -6 30 -9 23z"/>
<path d="M3874 4444 c1 -8 4 -15 7 -16 2 -2 3 -1 2 1 -2 2 2 9 7 16 7 8 5 12
-4 12 -8 0 -13 -6 -12 -13z"/>
<path d="M3799 4393 c-4 -25 5 -60 18 -75 10 -11 11 -18 3 -23 -5 -3 -7 -11
-4 -17 13 -20 25 19 14 46 -5 14 -7 26 -3 26 3 0 -1 8 -10 18 -10 10 -14 22
-10 25 3 4 3 7 0 7 -4 0 -7 -3 -8 -7z"/>
<path d="M3929 4348 c-6 -21 -5 -39 2 -44 5 -3 6 -10 3 -16 -4 -7 -2 -8 5 -4
8 5 9 12 3 19 -5 7 -8 20 -7 30 3 13 -2 26 -6 15z"/>
<path d="M8260 4330 c0 -5 5 -10 10 -10 6 0 10 5 10 10 0 6 -4 10 -10 10 -5 0
-10 -4 -10 -10z"/>
<path d="M3955 4321 c-3 -5 -2 -12 3 -15 5 -3 9 1 9 9 0 17 -3 19 -12 6z"/>
<path d="M7920 4299 c0 -5 5 -7 10 -4 6 3 10 8 10 11 0 2 -4 4 -10 4 -5 0 -10
-5 -10 -11z"/>
<path d="M3955 4281 c-3 -5 -2 -12 3 -15 5 -3 9 1 9 9 0 17 -3 19 -12 6z"/>
<path d="M3983 4234 c9 -11 15 -23 12 -26 -3 -3 3 -11 12 -19 16 -12 17 -12 7
1 -6 8 -10 23 -8 33 1 11 0 16 -3 13 -4 -3 -13 0 -22 6 -12 10 -12 7 2 -8z"/>
<path d="M3960 4220 c6 -11 13 -20 16 -20 2 0 0 9 -6 20 -6 11 -13 20 -16 20
-2 0 0 -9 6 -20z"/>
<path d="M6377 4133 c3 -7 9 -10 14 -7 14 8 11 21 -5 21 -8 0 -12 -6 -9 -14z"/>
<path d="M4060 4125 c0 -2 6 -8 13 -14 10 -8 14 -7 14 2 0 8 -6 14 -14 14 -7
0 -13 -1 -13 -2z"/>
<path d="M4105 4121 c-3 -5 -2 -12 3 -15 5 -3 9 1 9 9 0 17 -3 19 -12 6z"/>
<path d="M3937 4096 c-3 -8 -2 -18 3 -21 13 -8 20 9 11 24 -6 10 -10 9 -14 -3z"/>
<path d="M6376 4101 c-4 -5 -2 -12 3 -15 5 -4 12 -2 15 3 4 5 2 12 -3 15 -5 4
-12 2 -15 -3z"/>
<path d="M6190 4096 c0 -2 8 -10 18 -17 15 -13 16 -12 3 4 -13 16 -21 21 -21
13z"/>
<path d="M3957 4072 c-10 -11 -14 -23 -9 -26 12 -7 35 19 30 34 -2 7 -11 3
-21 -8z"/>
<path d="M5755 4060 c3 -5 8 -10 11 -10 2 0 4 5 4 10 0 6 -5 10 -11 10 -5 0
-7 -4 -4 -10z"/>
<path d="M6194 4045 c0 -13 3 -22 7 -19 8 4 6 30 -2 38 -3 3 -5 -5 -5 -19z"/>
<path d="M6330 4057 c0 -8 -3 -24 -7 -34 -6 -15 -4 -16 9 -5 16 13 18 35 5 48
-4 4 -7 0 -7 -9z"/>
<path d="M3996 4033 c-3 -7 -2 -12 2 -11 15 5 62 -35 61 -51 -1 -13 -2 -13 -6
2 -6 23 -27 17 -30 -9 -3 -18 -2 -18 6 1 8 16 10 17 10 3 1 -10 9 -16 21 -15
11 1 20 2 20 3 0 16 -29 59 -40 59 -8 0 -14 7 -14 16 1 19 -23 21 -30 2z"/>
<path d="M6287 4033 c-3 -5 -2 -15 2 -22 7 -10 10 -10 16 -1 4 6 3 16 -3 22
-5 5 -12 6 -15 1z"/>
<path d="M6150 4006 c0 -2 8 -10 18 -17 15 -13 16 -12 3 4 -13 16 -21 21 -21
13z"/>
<path d="M6114 3953 c1 -7 8 -19 16 -26 12 -10 12 -9 2 4 -8 10 -8 19 -1 26 6
6 5 10 -5 10 -7 0 -13 -6 -12 -14z"/>
<path d="M6104 3923 c4 -7 6 -21 4 -31 -3 -11 0 -19 8 -19 8 0 12 3 9 5 -3 3
1 12 7 21 7 9 9 13 4 9 -5 -4 -16 1 -25 10 -9 10 -12 12 -7 5z"/>
<path d="M6090 3901 c0 -7 -4 -10 -8 -7 -5 3 -9 -2 -9 -10 0 -13 2 -13 16 0 8
9 12 19 8 22 -4 4 -7 2 -7 -5z"/>
<path d="M5924 3813 c6 -14 -15 -14 -25 0 -3 5 -9 2 -12 -7 -5 -14 3 -16 54
-16 52 0 60 2 57 18 -2 12 -13 17 -41 17 -27 1 -36 -3 -33 -12z"/>
<path d="M5615 3731 c-2 -3 18 -7 43 -9 25 -1 42 1 38 5 -9 9 -76 12 -81 4z"/>
<path d="M5514 3698 c-3 -5 -12 -7 -20 -4 -8 3 -14 1 -14 -4 0 -6 25 -10 55
-10 47 0 53 2 48 17 -4 11 -8 13 -11 5 -2 -7 -9 -9 -15 -5 -19 12 -36 12 -43
1z"/>
<path d="M5328 3648 c-8 -4 4 -8 30 -8 23 0 42 2 42 4 0 8 -60 12 -72 4z"/>
<path d="M680 3355 c0 -8 7 -15 15 -15 8 0 15 7 15 15 0 8 -7 15 -15 15 -8 0
-15 -7 -15 -15z"/>
<path d="M790 3318 c0 -10 7 -18 15 -18 8 0 15 8 15 18 0 10 -7 19 -15 19 -8
0 -15 -9 -15 -19z"/>
<path d="M2828 3303 c7 -3 16 -2 19 1 4 3 -2 6 -13 5 -11 0 -14 -3 -6 -6z"/>
<path d="M900 3285 c-10 -13 -9 -15 9 -15 12 0 21 6 21 15 0 8 -4 15 -9 15 -5
0 -14 -7 -21 -15z"/>
<path d="M980 3245 c0 -10 11 -15 35 -15 28 0 35 -4 35 -20 0 -13 7 -20 20
-20 13 0 20 -7 20 -20 0 -13 7 -20 20 -20 13 0 20 -7 20 -20 0 -11 7 -20 15
-20 8 0 15 -9 15 -20 0 -13 7 -20 19 -20 10 0 21 -9 24 -20 3 -11 11 -19 18
-18 7 2 13 -4 14 -12 0 -8 10 -16 23 -18 14 -2 22 -10 22 -23 0 -13 7 -19 21
-19 15 0 19 -5 15 -15 -4 -10 1 -15 14 -15 13 0 20 -7 20 -20 0 -12 6 -20 13
-19 6 1 25 1 40 0 24 -1 27 -4 22 -21 -5 -17 -2 -20 22 -21 15 -1 35 -1 43 0
11 1 9 -3 -5 -15 -16 -14 -17 -16 -2 -11 9 4 17 2 17 -3 0 -5 8 -9 18 -9 39
-1 52 -5 52 -14 0 -5 -7 -7 -15 -3 -8 3 -15 1 -15 -4 0 -6 6 -10 13 -10 6 0
22 -3 35 -6 18 -5 22 -2 22 15 0 14 6 21 20 21 13 0 20 7 20 20 0 14 7 20 21
20 11 0 18 4 15 9 -10 15 6 71 19 71 7 0 14 19 18 45 5 52 14 66 27 45 7 -11
10 -8 10 15 1 17 3 49 6 73 l5 42 -63 1 c-35 1 -71 1 -80 0 -10 -1 -18 3 -18
8 0 6 10 12 23 13 38 2 -104 16 -182 17 -58 1 -72 4 -68 15 7 17 -33 26 -119
26 -50 0 -64 3 -64 15 0 12 -19 15 -110 15 -91 0 -110 -3 -110 -15z m730 -289
c0 -3 -4 -8 -10 -11 -5 -3 -10 -1 -10 4 0 6 5 11 10 11 6 0 10 -2 10 -4z"/>
<path d="M5940 2900 c0 -5 5 -10 11 -10 5 0 7 5 4 10 -3 6 -8 10 -11 10 -2 0
-4 -4 -4 -10z"/>
<path d="M1590 2750 c-13 -8 -12 -10 3 -10 9 0 17 5 17 10 0 12 -1 12 -20 0z"/>
<path d="M5118 2673 c7 -3 16 -2 19 1 4 3 -2 6 -13 5 -11 0 -14 -3 -6 -6z"/>
<path d="M4665 2600 c-4 -6 14 -10 46 -10 29 0 50 3 46 6 -11 11 -86 14 -92 4z"/>
<path d="M4488 2563 c6 -2 18 -2 25 0 6 3 1 5 -13 5 -14 0 -19 -2 -12 -5z"/>
<path d="M3746 2492 c-3 -4 4 -9 15 -9 23 -2 25 3 4 10 -8 4 -16 3 -19 -1z"/>
<path d="M3824 2489 c-13 -5 -3 -8 29 -8 26 -1 47 1 47 3 0 8 -58 12 -76 5z"/>
</g>
</svg>
